<?xml version="1.0" standalone="no"?>
<!DOCTYPE svg PUBLIC "-//W3C//DTD SVG 20010904//EN"
 "http://www.w3.org/TR/2001/REC-SVG-20010904/DTD/svg10.dtd">
<svg version="1.0" xmlns="http://www.w3.org/2000/svg"
 width="200.000000pt" height="200.000000pt" viewBox="0 0 200.000000 200.000000"
 preserveAspectRatio="xMidYMid meet">
<metadata>
Created by potrace 1.15, written by Peter Selinger 2001-2017
</metadata>
<g transform="translate(0.000000,200.000000) scale(0.100000,-0.100000)"
 stroke="none">
<path d="M162 1780 c-41 -25 -72 -76 -72 -117 l0 -33 120 0 120 0 0 -687 c0
-665 1 -689 20 -720 40 -66 8 -63 766 -63 671 0 687 0 719 20 37 23 65 74 65
119 l0 31 -120 0 -120 0 0 685 c0 757 3 725 -63 765 -31 19 -55 20 -717 20
-666 0 -686 -1 -718 -20z m1393 -45 c18 -9 37 -27 44 -41 8 -18 11 -215 11
-694 l0 -670 -525 0 -525 0 0 -29 c0 -77 -93 -113 -148 -58 l-27 27 -5 723
c-3 397 -9 730 -14 740 -8 16 23 17 574 17 505 0 586 -2 615 -15z m262 -1492
l-27 -28 -600 -3 -599 -2 15 30 15 30 612 0 612 0 -28 -27z"/>
<path d="M670 1675 c0 -9 12 -18 30 -21 27 -6 32 -13 55 -90 14 -46 36 -122
50 -168 l26 -85 -27 -42 c-44 -71 -38 -74 187 -77 109 -1 198 -7 203 -12 17
-17 36 -11 36 10 0 34 -32 40 -219 40 -100 0 -181 3 -181 8 0 4 8 17 18 29 16
21 29 23 195 31 98 5 183 14 188 19 10 10 49 198 49 237 0 13 -6 26 -14 29 -7
3 -103 10 -212 17 -268 14 -284 17 -284 40 0 10 -10 26 -22 34 -29 21 -78 21
-78 1z"/>
<path d="M500 895 l0 -85 90 0 90 0 0 85 0 85 -90 0 -90 0 0 -85z"/>
<path d="M784 903 c-13 -51 -1 -53 352 -53 280 0 325 2 338 16 9 8 16 21 16
28 0 34 -20 36 -362 36 l-338 0 -6 -27z"/>
<path d="M500 685 l0 -85 90 0 90 0 0 85 0 85 -90 0 -90 0 0 -85z"/>
<path d="M795 717 c-13 -10 -16 -21 -11 -40 l6 -27 338 0 c342 0 362 2 362 36
0 7 -7 20 -16 28 -13 14 -58 16 -338 16 -254 0 -326 -3 -341 -13z"/>
<path d="M500 480 l0 -90 90 0 90 0 0 90 0 90 -90 0 -90 0 0 -90z"/>
<path d="M792 508 c-15 -15 -15 -41 0 -56 9 -9 99 -12 345 -12 322 0 333 1
343 20 8 14 8 26 0 40 -10 19 -21 20 -343 20 -246 0 -336 -3 -345 -12z"/>
</g>
</svg>
