<svg xmlns="http://www.w3.org/2000/svg" viewBox="0 0 186.42 168.99"><defs><style>.cls-1,.cls-2{fill:#231f20;stroke:#fff;stroke-miterlimit:10;}.cls-2{stroke-width:3px;}</style></defs><title>movePantry</title><g id="Layer_1" data-name="Layer 1"><path d="M153.3,23.13c-1,.3-1.3,4.6-1.3,16.4v16l-3.6,3.2c-6,5.2-6.4,7.2-6.4,30.7v21h-6v-60l-2.6-1c-1.4-.6-9.2-1-17.4-1s-16,.4-17.4,1l-2.6,1v60H86.1l1.9-4.3c2.6-5.6,2.6-15.8.1-21.2-3.9-8.5-12.4-13.7-22.1-13.7s-18.2,5.2-22.1,13.7c-2.5,5.4-2.5,15.6,0,21.1l1.9,4.2-4.4.5c-2.4.2-5.1,1-5.9,1.7-1.8,1.5-2,8.1-.3,9.8s151.9,1.7,153.6,0,1.5-8.3-.2-9.7a11.94,11.94,0,0,0-5-1.8l-3.6-.6V89.23c0-23.3-.4-25.3-6.4-30.5l-3.6-3.2v-16c0-13.6-.2-16-1.6-16.5C166.6,22.33,155.1,22.33,153.3,23.13ZM167,65.33c4.1,2.9,4.9,7.1,4.9,26.8l.1,18.3H149.8l.4-19.8c.3-22,.9-24,7.1-26.7C160.9,62.33,163.3,62.73,167,65.33Zm-50.5,10.1c1,0,4.1-2.1,6.7-4.7L128,66v44.4H104V63.93l5.3,5.8C112.3,73,115.3,75.43,116.5,75.43Zm-43,6.9a15.51,15.51,0,0,1,5.5,20.9c-7.9,12.9-28,7.4-28-7.6,0-7.2,3.6-12.3,10.7-14.7C65.9,79.43,69,79.83,73.5,82.33Z" transform="translate(-3.58 -22.52)"/><path d="M52,53.63c0,6.4,5.5,12.7,12,13.5l4.3.6-.5-4.8c-.8-6.2-4.5-10.1-11.1-11.4l-4.7-.8Z" transform="translate(-3.58 -22.52)"/><path d="M49.3,133.13c-.7.2-1.3,1.8-1.3,3.4v2.9H98v-2.9c0-1.7-.6-3.1-1.6-3.5C94.5,132.33,51.1,132.33,49.3,133.13Z" transform="translate(-3.58 -22.52)"/><path d="M49.1,145.93c-4.1,5.3-5.4,10.8-4.8,20.2.3,4.8.8,9.8,1.2,11,.7,2.2.5,2.3-4.2,2.3-2.7,0-5.4.5-6.1,1.2-1.6,1.6-1.6,8,0,9.6s151.9,1.7,153.6,0,1.6-8,0-9.6c-.7-.7-4.2-1.2-8.6-1.2-6,0-7.3-.3-6.9-1.4.3-.8,2-4.8,3.7-9s3-8.8,2.8-10.3l-.3-2.8h-67l-.3,3c-.1,1.6,1.1,6.9,2.7,11.7l3,8.8H99.8l.9-3.3a84.19,84.19,0,0,0,.8-12.8c0-8.9-.2-9.9-3-14.5l-3.1-4.9-22.1-.3-22.1-.2Zm42.2,9c2.3,4.9,2.2,14.8-.3,20.2l-1.9,4.3H56.9l-1.9-4.3c-2.5-5.3-2.6-15.5-.4-20.3l1.6-3.4H89.6Zm77.4,9.7c-.3.7-1.7,4.3-3.2,8l-2.7,6.8H127.4l-2.6-8-2.6-8h23.5C164.1,163.43,169.1,163.73,168.7,164.63Z" transform="translate(-3.58 -22.52)"/><path d="M111.3,145.13c-.7.2-1.3,1.8-1.3,3.4v2.9h72v-2.9c0-1.7-.6-3.1-1.6-3.5C178.5,144.33,113.1,144.33,111.3,145.13Z" transform="translate(-3.58 -22.52)"/><path class="cls-1" d="M-59,78.1" transform="translate(-3.58 -22.52)"/></g><g id="Layer_2" data-name="Layer 2"><path class="cls-2" d="M55.37,36.36c36.35,19.92,65,28.78,62.48,39.3-.52,2.2-1.84,3.73-4.81,5.43C88.34,95.18,67.73,126,59.5,125.23a2.6,2.6,0,0,1-1.44-.49c-5.66-3.89,9.42-26.52,3.6-31.59-2.8-2.44-9.25.25-15.38,2.81a54.71,54.71,0,0,0-18.34,11.67s-1.15,1.15-2.24,2.39C14.83,122.4,6.61,154,6.61,154S-.72,123.7,16.75,96.36C28.37,78.19,55.07,64.74,55.07,64.74,49.73,51.56,45.13,37.46,49.17,35,51,33.94,53.92,35.57,55.37,36.36Z" transform="translate(-3.58 -22.52)"/></g></svg>