<svg xmlns="http://www.w3.org/2000/svg" viewBox="0 0 195.63 164"><defs><style>.cls-1{fill:#231f20;stroke:#fff;stroke-miterlimit:10;stroke-width:3px;}</style></defs><title>moveShopping</title><g id="Layer_1" data-name="Layer 1"><path d="M9.07,23.63c-4.1,2.5-7.2,7.6-7.2,11.7v3.3h24v68.7c0,66.5.1,68.9,2,72,4,6.6.8,6.3,76.6,6.3,67.1,0,68.7,0,71.9-2a15.05,15.05,0,0,0,6.5-11.9v-3.1h-24v-68.5c0-75.7.3-72.5-6.3-76.5-3.1-1.9-5.5-2-71.7-2C14.27,21.63,12.27,21.73,9.07,23.63Zm139.3,4.5a11,11,0,0,1,4.4,4.1c.8,1.8,1.1,21.5,1.1,69.4v67h-105v2.9c0,7.7-9.3,11.3-14.8,5.8l-2.7-2.7-.5-72.3c-.3-39.7-.9-73-1.4-74-.8-1.6,2.3-1.7,57.4-1.7C137.37,26.63,145.47,26.83,148.37,28.13Zm26.2,149.2-2.7,2.8-60,.3-59.9.2,1.5-3,1.5-3h122.4Z" transform="translate(-1.87 -21.63)"/><path d="M59.87,34.13c0,.9,1.2,1.8,3,2.1,2.7.6,3.2,1.3,5.5,9,1.4,4.6,3.6,12.2,5,16.8l2.6,8.5-2.7,4.2c-4.4,7.1-3.8,7.4,18.7,7.7,10.9.1,19.8.7,20.3,1.2,1.7,1.7,3.6,1.1,3.6-1,0-3.4-3.2-4-21.9-4-10,0-18.1-.3-18.1-.8a8.53,8.53,0,0,1,1.8-2.9c1.6-2.1,2.9-2.3,19.5-3.1,9.8-.5,18.3-1.4,18.8-1.9,1-1,4.9-19.8,4.9-23.7,0-1.3-.6-2.6-1.4-2.9s-10.3-1-21.2-1.7c-26.8-1.4-28.4-1.7-28.4-4a5.07,5.07,0,0,0-2.2-3.4C64.77,32.13,59.87,32.13,59.87,34.13Z" transform="translate(-1.87 -21.63)"/><path d="M42.87,112.13v8.5h18v-17h-18Z" transform="translate(-1.87 -21.63)"/><path d="M71.27,111.33c-1.3,5.1-.1,5.3,35.2,5.3,28,0,32.5-.2,33.8-1.6a4.81,4.81,0,0,0,1.6-2.8c0-3.4-2-3.6-36.2-3.6H71.87Z" transform="translate(-1.87 -21.63)"/><path d="M42.87,133.13v8.5h18v-17h-18Z" transform="translate(-1.87 -21.63)"/><path d="M72.37,129.93c-1.3,1-1.6,2.1-1.1,4l.6,2.7h33.8c34.2,0,36.2-.2,36.2-3.6a4.81,4.81,0,0,0-1.6-2.8c-1.3-1.4-5.8-1.6-33.8-1.6C81.07,128.63,73.87,128.93,72.37,129.93Z" transform="translate(-1.87 -21.63)"/><path d="M42.87,153.63v9h18v-18h-18Z" transform="translate(-1.87 -21.63)"/><path d="M72.07,150.83a4,4,0,0,0,0,5.6c.9.9,9.9,1.2,34.5,1.2,32.2,0,33.3-.1,34.3-2a3.63,3.63,0,0,0,0-4c-1-1.9-2.1-2-34.3-2C82,149.63,73,149.93,72.07,150.83Z" transform="translate(-1.87 -21.63)"/></g><g id="Layer_2" data-name="Layer 2"><path class="cls-1" d="M141.61,49.27C104.36,69.11,85.73,79,87.83,86.09c.57,1.94,2,3.12,4,4.18,18.45,9.66,40.56,41.49,47.93,40.75a2.36,2.36,0,0,0,1.29-.45c5.07-3.59-8.43-24.48-3.22-29.16,2.51-2.25,8.28.23,13.77,2.59a56,56,0,0,1,16.75,11.11c17.59,17.28,25.43,33,27.18,32.19,2-.9-2.54-22.92-17.5-42.93a104.51,104.51,0,0,0-34.3-29.19c4.53-10.89,9.33-24.68,5.28-27.42C147.06,46.41,143.65,48.18,141.61,49.27Z" transform="translate(-1.87 -21.63)"/></g></svg>