<?xml version="1.0" standalone="no"?>
<!DOCTYPE svg PUBLIC "-//W3C//DTD SVG 20010904//EN"
 "http://www.w3.org/TR/2001/REC-SVG-20010904/DTD/svg10.dtd">
<svg version="1.0" xmlns="http://www.w3.org/2000/svg"
 width="200.000000pt" height="200.000000pt" viewBox="0 0 200.000000 200.000000"
 preserveAspectRatio="xMidYMid meet">
<metadata>
Created by potrace 1.15, written by Peter Selinger 2001-2017
</metadata>
<g transform="translate(0.000000,200.000000) scale(0.100000,-0.100000)"
fill="#000000" stroke="none">
<path d="M1413 1783 c-10 -3 -13 -46 -13 -164 l0 -160 -36 -32 c-60 -52 -64
-72 -64 -307 l0 -210 -30 0 -30 0 0 300 0 300 -26 10 c-14 6 -92 10 -174 10
-82 0 -160 -4 -174 -10 l-26 -10 0 -300 0 -300 -50 0 -49 0 19 43 c26 56 26
158 1 212 -39 85 -124 137 -221 137 -97 0 -182 -52 -221 -137 -25 -54 -25
-156 0 -211 l19 -42 -44 -5 c-24 -2 -51 -10 -59 -17 -18 -15 -20 -81 -3 -98
17 -17 1519 -17 1536 0 17 17 15 83 -2 97 -8 7 -30 15 -50 18 l-36 6 0 209 c0
233 -4 253 -64 305 l-36 32 0 160 c0 136 -2 160 -16 165 -18 7 -133 7 -151 -1z
m137 -422 c41 -29 49 -71 49 -268 l1 -183 -111 0 -111 0 4 198 c3 220 9 240
71 267 36 16 60 12 97 -14z m-505 -101 c10 0 41 21 67 47 l48 47 0 -222 0
-222 -120 0 -120 0 0 233 0 232 53 -58 c30 -33 60 -57 72 -57z m-430 -69 c71
-40 97 -139 55 -209 -79 -129 -280 -74 -280 76 0 72 36 123 107 147 42 15 73
11 118 -14z"/>
<path d="M400 1478 c0 -64 55 -127 120 -135 l43 -6 -5 48 c-8 62 -45 101 -111
114 l-47 8 0 -29z"/>
<path d="M373 683 c-7 -2 -13 -18 -13 -34 l0 -29 250 0 250 0 0 29 c0 17 -6
31 -16 35 -19 7 -453 7 -471 -1z"/>
<path d="M371 555 c-41 -53 -54 -108 -48 -202 3 -48 8 -98 12 -110 7 -22 5
-23 -42 -23 -27 0 -54 -5 -61 -12 -16 -16 -16 -80 0 -96 17 -17 1519 -17 1536
0 16 16 16 80 0 96 -7 7 -42 12 -86 12 -60 0 -73 3 -69 14 3 8 20 48 37 90 17
41 30 88 28 103 l-3 28 -335 0 -335 0 -3 -30 c-1 -16 11 -69 27 -117 l30 -88
-90 0 -91 0 9 33 c4 17 8 75 8 128 0 89 -2 99 -30 145 l-31 49 -221 3 -221 2
-21 -25z m422 -90 c23 -49 22 -148 -3 -202 l-19 -43 -161 0 -161 0 -19 43
c-25 53 -26 155 -4 203 l16 34 167 0 167 0 17 -35z m774 -97 c-3 -7 -17 -43
-32 -80 l-27 -68 -177 0 -177 0 -26 80 -26 80 235 0 c184 0 234 -3 230 -12z"/>
<path d="M993 563 c-7 -2 -13 -18 -13 -34 l0 -29 360 0 360 0 0 29 c0 17 -6
31 -16 35 -19 7 -673 7 -691 -1z"/>
</g>
</svg>
