<svg xmlns="http://www.w3.org/2000/svg" xmlns:xlink="http://www.w3.org/1999/xlink" version="1.1" x="0px" y="0px" viewBox="0 0 512 640" style="enable-background:new 0 0 512 512;" xml:space="preserve"><g><g><path d="M256,11C120.7,11,11,120.7,11,256s109.7,245,245,245s245-109.7,245-245S391.3,11,256,11z M255.7,122.5    c14.6,0,26.5,11.7,26.5,26.2c0,14.4-11.9,26.2-26.5,26.2s-26.5-11.7-26.5-26.2C229.2,134.3,241.1,122.5,255.7,122.5z M137.6,237.7    c32-32.1,73.9-49.7,118.1-49.7s86.1,17.7,118.1,49.7c31.1,31.1,48.9,72.8,48.9,114.6c0,3.2-2.6,5.6-5.8,5.6H94.5    c-3.2,0-5.8-2.4-5.8-5.6C88.7,310.6,106.6,268.9,137.6,237.7z M418.1,390H94.8c-3.2,0-5.8-2.8-5.8-6s2.6-6,5.8-6h323.3    c3.2,0,5.8,2.8,5.8,6S421.3,390,418.1,390z"/><path d="M255.7,199.8c-82.3,0-152.1,66.2-155.3,147.2H411C407.8,266,338,199.8,255.7,199.8z"/><path d="M255.7,163.4c8.3,0,15-6.6,15-14.7c0-8.1-6.7-14.7-15-14.7c-8.3,0-15,6.6-15,14.7    C240.7,156.8,247.4,163.4,255.7,163.4z"/></g></g><text x="0" y="527" fill="#000000" font-size="5px" font-weight="bold" font-family="'Helvetica Neue', Helvetica, Arial-Unicode, Arial, Sans-serif">Created by Shocho</text><text x="0" y="532" fill="#000000" font-size="5px" font-weight="bold" font-family="'Helvetica Neue', Helvetica, Arial-Unicode, Arial, Sans-serif">from the Noun Project</text></svg>